<?xml version="1.0" standalone="no"?>
<svg width="774" height="200" style="overflow: hidden;" xmlns="http://www.w3.org/2000/svg" xmlns:xlink="http://www.w3.org/1999/xlink">
    <g>
        <g clip-path="url(#_ABSTRACT_RENDERER_ID_0)">
            <g>
                <g>
                    <path d="M0.5,199.5L0.5,199.5L11.702898550724637,179.6L22.905797101449274,153.73L34.10869565217391,165.67000000000002L45.31159420289855,163.68L56.51449275362319,181.59L67.71739130434781,177.61L78.92028985507245,145.77L90.1231884057971,133.82999999999998L101.32608695652173,119.9L112.52898550724638,135.82L123.731884057971,129.85L134.93478260869563,139.8L146.13768115942028,119.9L157.3405797101449,115.92L168.54347826086956,105.97L179.7463768115942,111.94L190.94927536231882,103.98L202.15217391304347,96.02L213.3550724637681,92.04L224.55797101449275,115.92L235.76086956521738,90.05L246.963768115942,88.06L258.16666666666663,86.07000000000001L269.36956521739125,80.1L280.57246376811594,100L291.77536231884056,96.02L302.9782608695652,98.01L314.1811594202898,101.99L325.38405797101444,94.03L336.5869565217391,90.05L347.78985507246375,80.1L358.9927536231884,78.11L370.195652173913,82.09L381.39855072463763,76.12L392.6014492753623,70.15L403.80434782608694,76.12L415.00724637681157,84.08L426.2101449275362,90.05L437.4130434782608,78.11L448.6159420289855,72.14L459.8188405797101,70.15L471.02173913043475,74.13L482.2246376811594,68.16L493.427536231884,66.16999999999999L504.63043478260863,62.19L515.8333333333333,62.19L527.0362318840579,60.19999999999999L538.2391304347825,56.22L549.4420289855072,64.18L560.6449275362319,68.16L571.8478260869565,70.15L583.0507246376811,66.16999999999999L594.2536231884058,60.19999999999999L605.4565217391304,58.21000000000001L616.659420289855,56.22L627.8623188405796,54.22999999999999L639.0652173913043,50.25L650.2681159420289,60.19999999999999L661.4710144927536,64.18L672.6739130434783,72.14L683.8768115942029,80.1L695.0797101449275,70.15L706.2826086956521,66.16999999999999L717.4855072463768,64.18L728.6884057971014,62.19L739.891304347826,60.19999999999999L751.0942028985506,56.22L762.2971014492753,50.25L773.4999999999999,40.30000000000001L773.4999999999999,199.5L773.4999999999999,199.5Z" stroke="none" stroke-width="0" fill-opacity="0.3" fill="#2693d5"></path>
                </g>
                <g>
                    <path d="M0.5,199.5L0.5,199.5L11.702898550724637,189.55L22.905797101449274,169.65L34.10869565217391,181.59L45.31159420289855,179.6L56.51449275362319,189.55L67.71739130434781,193.53L78.92028985507245,161.69L90.1231884057971,149.75L101.32608695652173,135.82L112.52898550724638,151.74L123.731884057971,145.77L134.93478260869563,155.72L146.13768115942028,135.82L157.3405797101449,131.84L168.54347826086956,121.89L179.7463768115942,127.86L190.94927536231882,119.9L202.15217391304347,111.94L213.3550724637681,107.96L224.55797101449275,131.84L235.76086956521738,105.97L246.963768115942,103.98L258.16666666666663,101.99L269.36956521739125,96.02L280.57246376811594,115.92L291.77536231884056,111.94L302.9782608695652,113.93L314.1811594202898,117.91L325.38405797101444,109.95L336.5869565217391,105.97L347.78985507246375,96.02L358.9927536231884,94.03L370.195652173913,98.01L381.39855072463763,92.04L392.6014492753623,86.07000000000001L403.80434782608694,92.04L415.00724637681157,100L426.2101449275362,105.97L437.4130434782608,94.03L448.6159420289855,88.06L459.8188405797101,86.07000000000001L471.02173913043475,90.05L482.2246376811594,84.08L493.427536231884,82.09L504.63043478260863,78.11L515.8333333333333,78.11L527.0362318840579,76.12L538.2391304347825,72.14L549.4420289855072,80.1L560.6449275362319,84.08L571.8478260869565,86.07000000000001L583.0507246376811,82.09L594.2536231884058,76.12L605.4565217391304,74.13L616.659420289855,72.14L627.8623188405796,70.15L639.0652173913043,66.16999999999999L650.2681159420289,76.12L661.4710144927536,80.1L672.6739130434783,88.06L683.8768115942029,96.02L695.0797101449275,86.07000000000001L706.2826086956521,82.09L717.4855072463768,80.1L728.6884057971014,78.11L739.891304347826,76.12L751.0942028985506,72.14L762.2971014492753,66.16999999999999L773.4999999999999,56.22L773.4999999999999,199.5L773.4999999999999,199.5Z" stroke="none" stroke-width="0" fill-opacity="0.5" fill="#1e75aa"></path>
                </g>
            </g>
            <g>
                <path d="M0.5,199.5L11.702898550724637,179.6L22.905797101449274,153.73L34.10869565217391,165.67000000000002L45.31159420289855,163.68L56.51449275362319,181.59L67.71739130434781,177.61L78.92028985507245,145.77L90.1231884057971,133.82999999999998L101.32608695652173,119.9L112.52898550724638,135.82L123.731884057971,129.85L134.93478260869563,139.8L146.13768115942028,119.9L157.3405797101449,115.92L168.54347826086956,105.97L179.7463768115942,111.94L190.94927536231882,103.98L202.15217391304347,96.02L213.3550724637681,92.04L224.55797101449275,115.92L235.76086956521738,90.05L246.963768115942,88.06L258.16666666666663,86.07000000000001L269.36956521739125,80.1L280.57246376811594,100L291.77536231884056,96.02L302.9782608695652,98.01L314.1811594202898,101.99L325.38405797101444,94.03L336.5869565217391,90.05L347.78985507246375,80.1L358.9927536231884,78.11L370.195652173913,82.09L381.39855072463763,76.12L392.6014492753623,70.15L403.80434782608694,76.12L415.00724637681157,84.08L426.2101449275362,90.05L437.4130434782608,78.11L448.6159420289855,72.14L459.8188405797101,70.15L471.02173913043475,74.13L482.2246376811594,68.16L493.427536231884,66.16999999999999L504.63043478260863,62.19L515.8333333333333,62.19L527.0362318840579,60.19999999999999L538.2391304347825,56.22L549.4420289855072,64.18L560.6449275362319,68.16L571.8478260869565,70.15L583.0507246376811,66.16999999999999L594.2536231884058,60.19999999999999L605.4565217391304,58.21000000000001L616.659420289855,56.22L627.8623188405796,54.22999999999999L639.0652173913043,50.25L650.2681159420289,60.19999999999999L661.4710144927536,64.18L672.6739130434783,72.14L683.8768115942029,80.1L695.0797101449275,70.15L706.2826086956521,66.16999999999999L717.4855072463768,64.18L728.6884057971014,62.19L739.891304347826,60.19999999999999L751.0942028985506,56.22L762.2971014492753,50.25L773.4999999999999,40.30000000000001" stroke="#2693d5" stroke-width="2" fill-opacity="1" fill="none"></path>
                <path d="M0.5,199.5L11.702898550724637,189.55L22.905797101449274,169.65L34.10869565217391,181.59L45.31159420289855,179.6L56.51449275362319,189.55L67.71739130434781,193.53L78.92028985507245,161.69L90.1231884057971,149.75L101.32608695652173,135.82L112.52898550724638,151.74L123.731884057971,145.77L134.93478260869563,155.72L146.13768115942028,135.82L157.3405797101449,131.84L168.54347826086956,121.89L179.7463768115942,127.86L190.94927536231882,119.9L202.15217391304347,111.94L213.3550724637681,107.96L224.55797101449275,131.84L235.76086956521738,105.97L246.963768115942,103.98L258.16666666666663,101.99L269.36956521739125,96.02L280.57246376811594,115.92L291.77536231884056,111.94L302.9782608695652,113.93L314.1811594202898,117.91L325.38405797101444,109.95L336.5869565217391,105.97L347.78985507246375,96.02L358.9927536231884,94.03L370.195652173913,98.01L381.39855072463763,92.04L392.6014492753623,86.07000000000001L403.80434782608694,92.04L415.00724637681157,100L426.2101449275362,105.97L437.4130434782608,94.03L448.6159420289855,88.06L459.8188405797101,86.07000000000001L471.02173913043475,90.05L482.2246376811594,84.08L493.427536231884,82.09L504.63043478260863,78.11L515.8333333333333,78.11L527.0362318840579,76.12L538.2391304347825,72.14L549.4420289855072,80.1L560.6449275362319,84.08L571.8478260869565,86.07000000000001L583.0507246376811,82.09L594.2536231884058,76.12L605.4565217391304,74.13L616.659420289855,72.14L627.8623188405796,70.15L639.0652173913043,66.16999999999999L650.2681159420289,76.12L661.4710144927536,80.1L672.6739130434783,88.06L683.8768115942029,96.02L695.0797101449275,86.07000000000001L706.2826086956521,82.09L717.4855072463768,80.1L728.6884057971014,78.11L739.891304347826,76.12L751.0942028985506,72.14L762.2971014492753,66.16999999999999L773.4999999999999,56.22" stroke="#1e75aa" stroke-width="2" fill-opacity="1" fill="none"></path>
            </g>
        </g>
        <g>
            <circle cx="0.5" cy="199.5" r="2.5" stroke="none" stroke-width="0" fill="#2693d5"></circle>
            <circle cx="11.702898550724637" cy="179.6" r="2.5" stroke="none" stroke-width="0" fill="#2693d5"></circle>
            <circle cx="22.905797101449274" cy="153.73" r="2.5" stroke="none" stroke-width="0" fill="#2693d5"></circle>
            <circle cx="34.10869565217391" cy="165.67000000000002" r="2.5" stroke="none" stroke-width="0" fill="#2693d5"></circle>
            <circle cx="45.31159420289855" cy="163.68" r="2.5" stroke="none" stroke-width="0" fill="#2693d5"></circle>
            <circle cx="56.51449275362319" cy="181.59" r="2.5" stroke="none" stroke-width="0" fill="#2693d5"></circle>
            <circle cx="67.71739130434781" cy="177.61" r="2.5" stroke="none" stroke-width="0" fill="#2693d5"></circle>
            <circle cx="78.92028985507245" cy="145.77" r="2.5" stroke="none" stroke-width="0" fill="#2693d5"></circle>
            <circle cx="90.1231884057971" cy="133.82999999999998" r="2.5" stroke="none" stroke-width="0" fill="#2693d5"></circle>
            <circle cx="101.32608695652173" cy="119.9" r="2.5" stroke="none" stroke-width="0" fill="#2693d5"></circle>
            <circle cx="112.52898550724638" cy="135.82" r="2.5" stroke="none" stroke-width="0" fill="#2693d5"></circle>
            <circle cx="123.731884057971" cy="129.85" r="2.5" stroke="none" stroke-width="0" fill="#2693d5"></circle>
            <circle cx="134.93478260869563" cy="139.8" r="2.5" stroke="none" stroke-width="0" fill="#2693d5"></circle>
            <circle cx="146.13768115942028" cy="119.9" r="2.5" stroke="none" stroke-width="0" fill="#2693d5"></circle>
            <circle cx="157.3405797101449" cy="115.92" r="2.5" stroke="none" stroke-width="0" fill="#2693d5"></circle>
            <circle cx="168.54347826086956" cy="105.97" r="2.5" stroke="none" stroke-width="0" fill="#2693d5"></circle>
            <circle cx="179.7463768115942" cy="111.94" r="2.5" stroke="none" stroke-width="0" fill="#2693d5"></circle>
            <circle cx="190.94927536231882" cy="103.98" r="2.5" stroke="none" stroke-width="0" fill="#2693d5"></circle>
            <circle cx="202.15217391304347" cy="96.02" r="2.5" stroke="none" stroke-width="0" fill="#2693d5"></circle>
            <circle cx="213.3550724637681" cy="92.04" r="2.5" stroke="none" stroke-width="0" fill="#2693d5"></circle>
            <circle cx="224.55797101449275" cy="115.92" r="2.5" stroke="none" stroke-width="0" fill="#2693d5"></circle>
            <circle cx="235.76086956521738" cy="90.05" r="2.5" stroke="none" stroke-width="0" fill="#2693d5"></circle>
            <circle cx="246.963768115942" cy="88.06" r="2.5" stroke="none" stroke-width="0" fill="#2693d5"></circle>
            <circle cx="258.16666666666663" cy="86.07000000000001" r="2.5" stroke="none" stroke-width="0" fill="#2693d5"></circle>
            <circle cx="269.36956521739125" cy="80.1" r="2.5" stroke="none" stroke-width="0" fill="#2693d5"></circle>
            <circle cx="280.57246376811594" cy="100" r="2.5" stroke="none" stroke-width="0" fill="#2693d5"></circle>
            <circle cx="291.77536231884056" cy="96.02" r="2.5" stroke="none" stroke-width="0" fill="#2693d5"></circle>
            <circle cx="302.9782608695652" cy="98.01" r="2.5" stroke="none" stroke-width="0" fill="#2693d5"></circle>
            <circle cx="314.1811594202898" cy="101.99" r="2.5" stroke="none" stroke-width="0" fill="#2693d5"></circle>
            <circle cx="325.38405797101444" cy="94.03" r="2.5" stroke="none" stroke-width="0" fill="#2693d5"></circle>
            <circle cx="336.5869565217391" cy="90.05" r="2.5" stroke="none" stroke-width="0" fill="#2693d5"></circle>
            <circle cx="347.78985507246375" cy="80.1" r="2.5" stroke="none" stroke-width="0" fill="#2693d5"></circle>
            <circle cx="358.9927536231884" cy="78.11" r="2.5" stroke="none" stroke-width="0" fill="#2693d5"></circle>
            <circle cx="370.195652173913" cy="82.09" r="2.5" stroke="none" stroke-width="0" fill="#2693d5"></circle>
            <circle cx="381.39855072463763" cy="76.12" r="2.5" stroke="none" stroke-width="0" fill="#2693d5"></circle>
            <circle cx="392.6014492753623" cy="70.15" r="2.5" stroke="none" stroke-width="0" fill="#2693d5"></circle>
            <circle cx="403.80434782608694" cy="76.12" r="2.5" stroke="none" stroke-width="0" fill="#2693d5"></circle>
            <circle cx="415.00724637681157" cy="84.08" r="2.5" stroke="none" stroke-width="0" fill="#2693d5"></circle>
            <circle cx="426.2101449275362" cy="90.05" r="2.5" stroke="none" stroke-width="0" fill="#2693d5"></circle>
            <circle cx="437.4130434782608" cy="78.11" r="2.5" stroke="none" stroke-width="0" fill="#2693d5"></circle>
            <circle cx="448.6159420289855" cy="72.14" r="2.5" stroke="none" stroke-width="0" fill="#2693d5"></circle>
            <circle cx="459.8188405797101" cy="70.15" r="2.5" stroke="none" stroke-width="0" fill="#2693d5"></circle>
            <circle cx="471.02173913043475" cy="74.13" r="2.5" stroke="none" stroke-width="0" fill="#2693d5"></circle>
            <circle cx="482.2246376811594" cy="68.16" r="2.5" stroke="none" stroke-width="0" fill="#2693d5"></circle>
            <circle cx="493.427536231884" cy="66.16999999999999" r="2.5" stroke="none" stroke-width="0" fill="#2693d5"></circle>
            <circle cx="504.63043478260863" cy="62.19" r="2.5" stroke="none" stroke-width="0" fill="#2693d5"></circle>
            <circle cx="515.8333333333333" cy="62.19" r="2.5" stroke="none" stroke-width="0" fill="#2693d5"></circle>
            <circle cx="527.0362318840579" cy="60.19999999999999" r="2.5" stroke="none" stroke-width="0" fill="#2693d5"></circle>
            <circle cx="538.2391304347825" cy="56.22" r="2.5" stroke="none" stroke-width="0" fill="#2693d5"></circle>
            <circle cx="549.4420289855072" cy="64.18" r="2.5" stroke="none" stroke-width="0" fill="#2693d5"></circle>
            <circle cx="560.6449275362319" cy="68.16" r="2.5" stroke="none" stroke-width="0" fill="#2693d5"></circle>
            <circle cx="571.8478260869565" cy="70.15" r="2.5" stroke="none" stroke-width="0" fill="#2693d5"></circle>
            <circle cx="583.0507246376811" cy="66.16999999999999" r="2.5" stroke="none" stroke-width="0" fill="#2693d5"></circle>
            <circle cx="594.2536231884058" cy="60.19999999999999" r="2.5" stroke="none" stroke-width="0" fill="#2693d5"></circle>
            <circle cx="605.4565217391304" cy="58.21000000000001" r="2.5" stroke="none" stroke-width="0" fill="#2693d5"></circle>
            <circle cx="616.659420289855" cy="56.22" r="2.5" stroke="none" stroke-width="0" fill="#2693d5"></circle>
            <circle cx="627.8623188405796" cy="54.22999999999999" r="2.5" stroke="none" stroke-width="0" fill="#2693d5"></circle>
            <circle cx="639.0652173913043" cy="50.25" r="2.5" stroke="none" stroke-width="0" fill="#2693d5"></circle>
            <circle cx="650.2681159420289" cy="60.19999999999999" r="2.5" stroke="none" stroke-width="0" fill="#2693d5"></circle>
            <circle cx="661.4710144927536" cy="64.18" r="2.5" stroke="none" stroke-width="0" fill="#2693d5"></circle>
            <circle cx="672.6739130434783" cy="72.14" r="2.5" stroke="none" stroke-width="0" fill="#2693d5"></circle>
            <circle cx="683.8768115942029" cy="80.1" r="2.5" stroke="none" stroke-width="0" fill="#2693d5"></circle>
            <circle cx="695.0797101449275" cy="70.15" r="2.5" stroke="none" stroke-width="0" fill="#2693d5"></circle>
            <circle cx="706.2826086956521" cy="66.16999999999999" r="2.5" stroke="none" stroke-width="0" fill="#2693d5"></circle>
            <circle cx="717.4855072463768" cy="64.18" r="2.5" stroke="none" stroke-width="0" fill="#2693d5"></circle>
            <circle cx="728.6884057971014" cy="62.19" r="2.5" stroke="none" stroke-width="0" fill="#2693d5"></circle>
            <circle cx="739.891304347826" cy="60.19999999999999" r="2.5" stroke="none" stroke-width="0" fill="#2693d5"></circle>
            <circle cx="751.0942028985506" cy="56.22" r="2.5" stroke="none" stroke-width="0" fill="#2693d5"></circle>
            <circle cx="762.2971014492753" cy="50.25" r="2.5" stroke="none" stroke-width="0" fill="#2693d5"></circle>
            <circle cx="773.4999999999999" cy="40.30000000000001" r="2.5" stroke="none" stroke-width="0" fill="#2693d5"></circle>
            <circle cx="0.5" cy="199.5" r="2.5" stroke="none" stroke-width="0" fill="#1e75aa"></circle>
            <circle cx="11.702898550724637" cy="189.55" r="2.5" stroke="none" stroke-width="0" fill="#1e75aa"></circle>
            <circle cx="22.905797101449274" cy="169.65" r="2.5" stroke="none" stroke-width="0" fill="#1e75aa"></circle>
            <circle cx="34.10869565217391" cy="181.59" r="2.5" stroke="none" stroke-width="0" fill="#1e75aa"></circle>
            <circle cx="45.31159420289855" cy="179.6" r="2.5" stroke="none" stroke-width="0" fill="#1e75aa"></circle>
            <circle cx="56.51449275362319" cy="189.55" r="2.5" stroke="none" stroke-width="0" fill="#1e75aa"></circle>
            <circle cx="67.71739130434781" cy="193.53" r="2.5" stroke="none" stroke-width="0" fill="#1e75aa"></circle>
            <circle cx="78.92028985507245" cy="161.69" r="2.5" stroke="none" stroke-width="0" fill="#1e75aa"></circle>
            <circle cx="90.1231884057971" cy="149.75" r="2.5" stroke="none" stroke-width="0" fill="#1e75aa"></circle>
            <circle cx="101.32608695652173" cy="135.82" r="2.5" stroke="none" stroke-width="0" fill="#1e75aa"></circle>
            <circle cx="112.52898550724638" cy="151.74" r="2.5" stroke="none" stroke-width="0" fill="#1e75aa"></circle>
            <circle cx="123.731884057971" cy="145.77" r="2.5" stroke="none" stroke-width="0" fill="#1e75aa"></circle>
            <circle cx="134.93478260869563" cy="155.72" r="2.5" stroke="none" stroke-width="0" fill="#1e75aa"></circle>
            <circle cx="146.13768115942028" cy="135.82" r="2.5" stroke="none" stroke-width="0" fill="#1e75aa"></circle>
            <circle cx="157.3405797101449" cy="131.84" r="2.5" stroke="none" stroke-width="0" fill="#1e75aa"></circle>
            <circle cx="168.54347826086956" cy="121.89" r="2.5" stroke="none" stroke-width="0" fill="#1e75aa"></circle>
            <circle cx="179.7463768115942" cy="127.86" r="2.5" stroke="none" stroke-width="0" fill="#1e75aa"></circle>
            <circle cx="190.94927536231882" cy="119.9" r="2.5" stroke="none" stroke-width="0" fill="#1e75aa"></circle>
            <circle cx="202.15217391304347" cy="111.94" r="2.5" stroke="none" stroke-width="0" fill="#1e75aa"></circle>
            <circle cx="213.3550724637681" cy="107.96" r="2.5" stroke="none" stroke-width="0" fill="#1e75aa"></circle>
            <circle cx="224.55797101449275" cy="131.84" r="2.5" stroke="none" stroke-width="0" fill="#1e75aa"></circle>
            <circle cx="235.76086956521738" cy="105.97" r="2.5" stroke="none" stroke-width="0" fill="#1e75aa"></circle>
            <circle cx="246.963768115942" cy="103.98" r="2.5" stroke="none" stroke-width="0" fill="#1e75aa"></circle>
            <circle cx="258.16666666666663" cy="101.99" r="2.5" stroke="none" stroke-width="0" fill="#1e75aa"></circle>
            <circle cx="269.36956521739125" cy="96.02" r="2.5" stroke="none" stroke-width="0" fill="#1e75aa"></circle>
            <circle cx="280.57246376811594" cy="115.92" r="2.5" stroke="none" stroke-width="0" fill="#1e75aa"></circle>
            <circle cx="291.77536231884056" cy="111.94" r="2.5" stroke="none" stroke-width="0" fill="#1e75aa"></circle>
            <circle cx="302.9782608695652" cy="113.93" r="2.5" stroke="none" stroke-width="0" fill="#1e75aa"></circle>
            <circle cx="314.1811594202898" cy="117.91" r="2.5" stroke="none" stroke-width="0" fill="#1e75aa"></circle>
            <circle cx="325.38405797101444" cy="109.95" r="2.5" stroke="none" stroke-width="0" fill="#1e75aa"></circle>
            <circle cx="336.5869565217391" cy="105.97" r="2.5" stroke="none" stroke-width="0" fill="#1e75aa"></circle>
            <circle cx="347.78985507246375" cy="96.02" r="2.5" stroke="none" stroke-width="0" fill="#1e75aa"></circle>
            <circle cx="358.9927536231884" cy="94.03" r="2.5" stroke="none" stroke-width="0" fill="#1e75aa"></circle>
            <circle cx="370.195652173913" cy="98.01" r="2.5" stroke="none" stroke-width="0" fill="#1e75aa"></circle>
            <circle cx="381.39855072463763" cy="92.04" r="2.5" stroke="none" stroke-width="0" fill="#1e75aa"></circle>
            <circle cx="392.6014492753623" cy="86.07000000000001" r="2.5" stroke="none" stroke-width="0" fill="#1e75aa"></circle>
            <circle cx="403.80434782608694" cy="92.04" r="2.5" stroke="none" stroke-width="0" fill="#1e75aa"></circle>
            <circle cx="415.00724637681157" cy="100" r="2.5" stroke="none" stroke-width="0" fill="#1e75aa"></circle>
            <circle cx="426.2101449275362" cy="105.97" r="2.5" stroke="none" stroke-width="0" fill="#1e75aa"></circle>
            <circle cx="437.4130434782608" cy="94.03" r="2.5" stroke="none" stroke-width="0" fill="#1e75aa"></circle>
            <circle cx="448.6159420289855" cy="88.06" r="2.5" stroke="none" stroke-width="0" fill="#1e75aa"></circle>
            <circle cx="459.8188405797101" cy="86.07000000000001" r="2.5" stroke="none" stroke-width="0" fill="#1e75aa"></circle>
            <circle cx="471.02173913043475" cy="90.05" r="2.5" stroke="none" stroke-width="0" fill="#1e75aa"></circle>
            <circle cx="482.2246376811594" cy="84.08" r="2.5" stroke="none" stroke-width="0" fill="#1e75aa"></circle>
            <circle cx="493.427536231884" cy="82.09" r="2.5" stroke="none" stroke-width="0" fill="#1e75aa"></circle>
            <circle cx="504.63043478260863" cy="78.11" r="2.5" stroke="none" stroke-width="0" fill="#1e75aa"></circle>
            <circle cx="515.8333333333333" cy="78.11" r="2.5" stroke="none" stroke-width="0" fill="#1e75aa"></circle>
            <circle cx="527.0362318840579" cy="76.12" r="2.5" stroke="none" stroke-width="0" fill="#1e75aa"></circle>
            <circle cx="538.2391304347825" cy="72.14" r="2.5" stroke="none" stroke-width="0" fill="#1e75aa"></circle>
            <circle cx="549.4420289855072" cy="80.1" r="2.5" stroke="none" stroke-width="0" fill="#1e75aa"></circle>
            <circle cx="560.6449275362319" cy="84.08" r="2.5" stroke="none" stroke-width="0" fill="#1e75aa"></circle>
            <circle cx="571.8478260869565" cy="86.07000000000001" r="2.5" stroke="none" stroke-width="0" fill="#1e75aa"></circle>
            <circle cx="583.0507246376811" cy="82.09" r="2.5" stroke="none" stroke-width="0" fill="#1e75aa"></circle>
            <circle cx="594.2536231884058" cy="76.12" r="2.5" stroke="none" stroke-width="0" fill="#1e75aa"></circle>
            <circle cx="605.4565217391304" cy="74.13" r="2.5" stroke="none" stroke-width="0" fill="#1e75aa"></circle>
            <circle cx="616.659420289855" cy="72.14" r="2.5" stroke="none" stroke-width="0" fill="#1e75aa"></circle>
            <circle cx="627.8623188405796" cy="70.15" r="2.5" stroke="none" stroke-width="0" fill="#1e75aa"></circle>
            <circle cx="639.0652173913043" cy="66.16999999999999" r="2.5" stroke="none" stroke-width="0" fill="#1e75aa"></circle>
            <circle cx="650.2681159420289" cy="76.12" r="2.5" stroke="none" stroke-width="0" fill="#1e75aa"></circle>
            <circle cx="661.4710144927536" cy="80.1" r="2.5" stroke="none" stroke-width="0" fill="#1e75aa"></circle>
            <circle cx="672.6739130434783" cy="88.06" r="2.5" stroke="none" stroke-width="0" fill="#1e75aa"></circle>
            <circle cx="683.8768115942029" cy="96.02" r="2.5" stroke="none" stroke-width="0" fill="#1e75aa"></circle>
            <circle cx="695.0797101449275" cy="86.07000000000001" r="2.5" stroke="none" stroke-width="0" fill="#1e75aa"></circle>
            <circle cx="706.2826086956521" cy="82.09" r="2.5" stroke="none" stroke-width="0" fill="#1e75aa"></circle>
            <circle cx="717.4855072463768" cy="80.1" r="2.5" stroke="none" stroke-width="0" fill="#1e75aa"></circle>
            <circle cx="728.6884057971014" cy="78.11" r="2.5" stroke="none" stroke-width="0" fill="#1e75aa"></circle>
            <circle cx="739.891304347826" cy="76.12" r="2.5" stroke="none" stroke-width="0" fill="#1e75aa"></circle>
            <circle cx="751.0942028985506" cy="72.14" r="2.5" stroke="none" stroke-width="0" fill="#1e75aa"></circle>
            <circle cx="762.2971014492753" cy="66.16999999999999" r="2.5" stroke="none" stroke-width="0" fill="#1e75aa"></circle>
            <circle cx="773.4999999999999" cy="56.22" r="2.5" stroke="none" stroke-width="0" fill="#1e75aa"></circle>
        </g>
    </g>
    <g></g>
</svg>